<?xml version="1.0" encoding="UTF-8" standalone="no"?>
<!DOCTYPE svg PUBLIC "-//W3C//DTD SVG 1.1//EN" "http://www.w3.org/Graphics/SVG/1.1/DTD/svg11.dtd">
<svg width="100%" height="100%" viewBox="0 0 720 720" version="1.1" xmlns="http://www.w3.org/2000/svg" xmlns:xlink="http://www.w3.org/1999/xlink" xml:space="preserve" xmlns:serif="http://www.serif.com/" style="fill-rule:evenodd;clip-rule:evenodd;stroke-linejoin:round;stroke-miterlimit:2;">
    <g transform="matrix(1,0,0,1,-2.260553,33.717567)">
        <g transform="matrix(1,0,0,1,-152,-152)">
            <path d="M365.797,596.757C359.919,604.557 354.261,612.076 348.376,619.896C347.763,618.918 347.308,618.531 347.308,618.146C347.398,568.492 347.584,518.839 347.541,469.186C347.537,464.488 349.009,461.735 352.895,459.034C374.269,444.174 384.795,423.413 384.899,397.467C385.032,363.972 384.951,330.477 384.945,296.982C384.945,294.985 384.982,292.961 384.685,290.998C384.026,286.643 379.875,282.76 375.329,282.66C370.866,282.562 367.249,284.383 365.441,288.845C364.477,291.222 364.4,293.689 364.418,296.207C364.618,324.185 364.781,352.163 364.97,380.141C365.01,386.133 363.894,391.522 357.624,394.149C349.518,397.546 340.9,391.983 340.717,383.016C340.505,372.688 340.658,362.353 340.658,352.021C340.657,332.857 340.41,313.688 340.783,294.531C340.932,286.847 336.297,282.894 330.885,282.565C324.77,282.194 320.368,287.197 320.352,294.555C320.291,323.218 320.335,351.881 320.316,380.543C320.314,382.693 320.505,384.854 319.761,386.973C317.936,392.166 312.091,395.89 306.831,395.111C300.756,394.211 295.969,389.158 295.744,382.741C295.48,375.251 295.655,367.746 295.654,360.247C295.651,338.583 295.663,316.92 295.654,295.256C295.651,287.624 291.649,282.747 285.256,282.52C279.216,282.306 274.442,287.541 274.424,295.012C274.335,331.507 273.475,368.032 274.713,404.485C275.412,425.089 285.535,442.797 302.127,455.212C310.193,461.248 312.679,467.333 312.571,477.02C312.06,522.841 312.342,568.671 312.341,614.498C312.341,616.305 312.341,618.113 312.341,619.896C309.602,620.467 309.175,618.411 308.303,617.241C280.934,580.511 253.586,543.767 226.294,506.98C217.462,495.075 208.705,483.112 200.078,471.058C184.167,448.826 173.754,424.203 171.734,396.9C167.025,333.255 191.72,283.274 244.736,248.05C273.771,228.759 306.614,221.401 341.326,223.805C418.348,229.139 473.236,285.161 485.93,352.194C494.157,395.636 484.993,436.025 458.764,471.838C428.167,513.616 396.959,554.949 365.797,596.757Z" style="fill-rule:nonzero;"/>
        </g>
        <g transform="matrix(1,0,0,1,-152,-152)">
            <path d="M608.057,618.946C618.575,629.753 623.38,642.461 623.357,657.112C623.326,676.096 623.372,695.08 623.34,714.064C623.319,726.805 617.077,733.14 604.459,733.154C567.157,733.197 529.854,733.211 492.552,733.191C479.266,733.183 472.83,727.006 472.71,713.717C472.542,695.068 472.49,676.413 472.745,657.765C473.242,621.365 502.772,602.818 528.384,600.577C543.702,599.236 558.932,599.187 574.138,601.557C587.224,603.595 598.376,609.459 608.057,618.946Z" style="fill-rule:nonzero;"/>
        </g>
        <g transform="matrix(1,0,0,1,-152,-152)">
            <path d="M717.481,512.06C714.78,511.008 715.513,509.568 716.38,507.966C721.929,497.715 727.368,487.405 732.977,477.187C738.458,467.202 746.969,461.167 758.16,459.416C776.014,456.622 794.142,455.584 811.718,459.852C836.287,465.818 852.098,481.391 856.981,506.868C857.323,508.649 857.333,510.512 857.334,512.337C857.354,539.829 857.363,567.321 857.338,594.813C857.326,607.993 851.289,614.014 838.244,614.012C816.75,614.009 795.257,614.021 773.764,614.03C766.669,614.032 766.69,614.036 766.651,606.789C766.567,591.004 767.785,575.092 763.591,559.623C757.052,535.509 742.632,518.787 717.481,512.06Z" style="fill-rule:nonzero;"/>
        </g>
        <g transform="matrix(1,0,0,1,-152,-152)">
            <path d="M611.37,588.611C606.708,586.813 602.374,585.192 598.133,583.606C598.069,583.063 597.888,582.663 598.013,582.419C604.884,568.941 610.894,554.953 619.73,542.596C625.978,533.858 635.451,530.158 645.788,529.988C663.027,529.704 680.351,527.946 697.428,532.574C721.266,539.034 738.207,560.316 738.313,584.929C738.428,611.419 738.318,637.91 738.369,664.401C738.379,669.364 737.164,673.928 734.759,678.227C732.166,682.861 728.179,685.24 722.925,685.246C699.767,685.274 676.608,685.181 653.45,685.254C649.738,685.266 648.624,683.794 648.578,680.187C648.429,668.545 649.206,656.902 647.745,645.26C644.657,620.657 634.093,600.989 611.37,588.611Z" style="fill-rule:nonzero;"/>
        </g>
        <g transform="matrix(1,0,0,1,-152,-152)">
            <path d="M814.824,345.116C831.359,359.493 837.018,377.475 831.88,397.988C826.751,418.462 812.972,431.66 792.148,435.647C762.266,441.368 737.887,419.932 732.6,393.765C727.487,368.455 745.061,338.37 775.245,333.989C789.738,331.886 802.964,335.774 814.824,345.116Z" style="fill-rule:nonzero;"/>
        </g>
        <g transform="matrix(1,0,0,1,-152,-152)">
            <path d="M687.164,500.29C656.323,518.513 617.405,499.56 611.404,464.619C606.685,437.15 628.718,403.287 665.284,405.645C688.165,407.12 709.421,427.901 711.408,450.8C713.255,472.077 704.788,488.204 687.164,500.29Z" style="fill-rule:nonzero;"/>
        </g>
        <g transform="matrix(1,0,0,1,-152,-152)">
            <path d="M504.569,503.755C514.191,487.316 528.287,477.762 546.825,477.026C566.579,476.243 582.38,484.838 592.51,502.166C611.172,534.088 590.255,573.193 554.614,577.146C535.268,579.292 519.12,571.95 507.85,555.995C496.306,539.652 495.602,522.05 504.569,503.755Z" style="fill-rule:nonzero;"/>
        </g>
    </g>
</svg>
