<svg xmlns="http://www.w3.org/2000/svg" fill="none" viewBox="0 0 64 64" id="IconNotepad" height="64" width="64"><desc>Hand Held Tablet Writing Streamline Icon: https://streamlinehq.com</desc><g id="IconNotepad"><path id="Subtract" fill="#8fbffa" fill-rule="evenodd" d="M28.416 18.125714285714285c0.22857142857142856 -0.8365714285714285 0.6537142857142856 -1.5908571428571427 1.2434285714285715 -2.194285714285714L42.56914285714285 2.7474285714285713a13.988571428571428 13.988571428571428 0 0 0 -0.8685714285714285 -0.13714285714285712C37.179428571428566 2.057142857142857 32.544 1.586285714285714 27.821714285714286 1.586285714285714S18.468571428571426 2.057142857142857 13.94742857142857 2.619428571428571A14.33142857142857 14.33142857142857 0 0 0 1.536 15.392c-0.5348571428571428 5.531428571428571 -1.0057142857142856 11.218285714285715 -1.0057142857142856 17.02857142857143 0 5.805714285714285 0.4708571428571428 11.492571428571427 1.0057142857142856 17.024a14.33142857142857 14.33142857142857 0 0 0 12.41142857142857 12.777142857142856c4.516571428571428 0.5622857142857143 9.152 1.0331428571428571 13.874285714285714 1.0331428571428571 4.7222857142857135 0 9.357714285714286 -0.4708571428571428 13.878857142857143 -1.0331428571428571a14.33142857142857 14.33142857142857 0 0 0 12.406857142857142 -12.777142857142856c0.5348571428571428 -5.531428571428571 1.0057142857142856 -11.218285714285715 1.0057142857142856 -17.024 0 -1.618285714285714 -0.03657142857142857 -3.2228571428571424 -0.10057142857142856 -4.8182857142857145L48 34.24a4.978285714285714 4.978285714285714 0 0 1 -2.1897142857142855 1.2022857142857142l-9.97942857142857 2.5691428571428574C30.034285714285716 39.497142857142855 24.25142857142857 33.65485714285714 25.796571428571426 27.885714285714283l2.619428571428571 -9.759999999999998Z" clip-rule="evenodd" stroke-width="1"></path><path id="Intersect" fill="#2859c5" d="M14.84342857142857 62.33142857142857a15.428571428571427 15.428571428571427 0 0 1 -13.394285714285715 -13.78742857142857c-0.10057142857142856 -1.0514285714285714 -0.19657142857142854 -2.112 -0.288 -3.172571428571428l53.31657142857143 0c-0.09142857142857143 1.0605714285714285 -0.18285714285714286 2.121142857142857 -0.2834285714285714 3.172571428571428a15.424 15.424 0 0 1 -13.394285714285715 13.78742857142857c-4.2377142857142855 0.512 -8.571428571428571 0.9234285714285715 -12.982857142857142 0.9234285714285715 -4.406857142857143 0 -8.740571428571428 -0.41142857142857137 -12.973714285714285 -0.9234285714285715Z" stroke-width="1"></path><path id="Vector" fill="#2859c5" d="M49.86514285714285 3.8948571428571426 33.94742857142857 20.141714285714283l-2.619428571428571 9.759999999999998c-0.38857142857142857 1.4628571428571429 1.074285714285714 2.9394285714285715 2.5371428571428574 2.56l9.984 -2.5691428571428574 16.370285714285714 -15.497142857142856c2.7199999999999998 -2.578285714285714 2.5142857142857142 -7.135999999999999 -0.46171428571428574 -10.057142857142857 -2.9028571428571426 -2.8571428571428568 -7.332571428571429 -3.053714285714286 -9.89257142857143 -0.4434285714285714Z" stroke-width="1"></path></g></svg>