<svg xmlns="http://www.w3.org/2000/svg" fill="none" viewBox="0 0 64 64" id="IconNewWindow" height="64" width="64"><desc>Browser Multiple Window Streamline Icon: https://streamlinehq.com</desc><g id="IconNewWindow"><path id="Subtract" fill="#8fbffa" fill-rule="evenodd" d="M29.257142857142856 0.9462857142857142C33.161142857142856 0.49371428571428566 37.42628571428571 0 41.80114285714286 0c4.3748571428571426 0 8.639999999999999 0.49371428571428566 12.53942857142857 0.9462857142857142l1.3988571428571428 0.16457142857142856a8.182857142857143 8.182857142857143 0 0 1 7.199999999999999 7.2137142857142855l0.128 1.1337142857142857c0.448 3.968 0.9325714285714285 8.297142857142857 0.9325714285714285 12.740571428571428s-0.4891428571428571 8.777142857142856 -0.9325714285714285 12.740571428571428l-0.128 1.1337142857142857a8.182857142857143 8.182857142857143 0 0 1 -7.199999999999999 7.2137142857142855l-1.3942857142857141 0.16457142857142856c-1.3714285714285712 0.15542857142857144 -2.784 0.32 -4.228571428571429 0.46628571428571425 0.018285714285714284 -0.6994285714285714 0.032 -1.408 0.032 -2.1165714285714285 0 -4.768 -0.5165714285714286 -9.357714285714286 -0.9554285714285713 -13.257142857142856l-0.013714285714285714 -0.11885714285714284 -0.12342857142857142 -1.129142857142857A13.906285714285712 13.906285714285712 0 0 0 36.818285714285715 15.04l-1.3897142857142857 -0.16 -0.11885714285714284 -0.013714285714285714c-3.835428571428571 -0.448 -8.374857142857143 -0.9737142857142856 -13.078857142857142 -0.9737142857142856 -0.7314285714285714 0 -1.4628571428571429 0.013714285714285714 -2.180571428571428 0.03657142857142857 0.15085714285714286 -1.526857142857143 0.32 -3.017142857142857 0.48 -4.466285714285714l0.12342857142857142 -1.1337142857142857A8.182857142857143 8.182857142857143 0 0 1 27.86285714285714 1.1108571428571428L29.257142857142856 0.9462857142857142Z" clip-rule="evenodd" stroke-width="1"></path><path id="Union" fill="#8fbffa" fill-rule="evenodd" d="M22.23542857142857 19.602285714285713c-4.3748571428571426 0 -8.639999999999999 0.49371428571428566 -12.544 0.9508571428571427l-1.3942857142857141 0.16A8.182857142857143 8.182857142857143 0 0 0 1.097142857142857 27.92685714285714l-0.128 1.1337142857142857C0.5211428571428571 33.028571428571425 0.03657142857142857 37.35771428571429 0.03657142857142857 41.80114285714286c0 4.4479999999999995 0.48457142857142854 8.777142857142856 0.9325714285714285 12.740571428571428l0.128 1.1337142857142857a8.182857142857143 8.182857142857143 0 0 0 7.199999999999999 7.2137142857142855l1.3942857142857141 0.16457142857142856c3.904 0.45257142857142857 8.169142857142857 0.9462857142857142 12.544 0.9462857142857142 4.3748571428571426 0 8.639999999999999 -0.49371428571428566 12.53942857142857 -0.9462857142857142l1.3988571428571428 -0.16457142857142856a8.182857142857143 8.182857142857143 0 0 0 7.199999999999999 -7.2137142857142855l0.128 -1.1337142857142857c0.448 -3.968 0.9325714285714285 -8.292571428571428 0.9325714285714285 -12.740571428571428 0 -4.443428571428571 -0.48457142857142854 -8.772571428571428 -0.9325714285714285 -12.740571428571428l-0.128 -1.1337142857142857a8.182857142857143 8.182857142857143 0 0 0 -7.199999999999999 -7.2137142857142855l-1.3988571428571428 -0.16c-3.899428571428571 -0.45714285714285713 -8.164571428571428 -0.9508571428571427 -12.53942857142857 -0.9508571428571427Z" clip-rule="evenodd" stroke-width="1"></path><path id="Subtract_2" fill="#2859c5" fill-rule="evenodd" d="M63.067428571428565 9.46285714285714c0.22857142857142856 2.011428571428571 0.46628571428571425 4.128 0.64 6.303999999999999H39.95428571428571a13.865142857142857 13.865142857142857 0 0 0 -3.126857142857143 -0.7314285714285714l-1.3897142857142857 -0.16 -0.11885714285714284 -0.013714285714285714c-3.835428571428571 -0.448 -8.374857142857143 -0.9737142857142856 -13.078857142857142 -0.9737142857142856 -0.7314285714285714 0 -1.4628571428571429 0.013714285714285714 -2.180571428571428 0.03657142857142857 0.15085714285714286 -1.526857142857143 0.32 -3.017142857142857 0.48 -4.466285714285714l0.12342857142857142 -1.1337142857142857A8.182857142857143 8.182857142857143 0 0 1 27.86285714285714 1.1108571428571428L29.257142857142856 0.9462857142857142C33.161142857142856 0.49371428571428566 37.42628571428571 0 41.80114285714286 0c4.3748571428571426 0 8.639999999999999 0.49371428571428566 12.53942857142857 0.9462857142857142l1.3988571428571428 0.16457142857142856a8.182857142857143 8.182857142857143 0 0 1 7.199999999999999 7.2137142857142855l0.128 1.1337142857142857Z" clip-rule="evenodd" stroke-width="1"></path><path id="Intersect" fill="#2859c5" fill-rule="evenodd" d="M44.14628571428571 35.369142857142855c-0.18285714285714286 -2.1759999999999997 -0.416 -4.287999999999999 -0.64 -6.308571428571428l-0.13257142857142856 -1.1337142857142857a8.182857142857143 8.182857142857143 0 0 0 -7.199999999999999 -7.2137142857142855l-1.3988571428571428 -0.16c-3.899428571428571 -0.45714285714285713 -8.164571428571428 -0.9508571428571427 -12.53942857142857 -0.9508571428571427 -4.3748571428571426 0 -8.639999999999999 0.49371428571428566 -12.53942857142857 0.9508571428571427l-1.3988571428571428 0.16A8.182857142857143 8.182857142857143 0 0 0 1.097142857142857 27.92685714285714l-0.128 1.1337142857142857c-0.22857142857142856 2.0205714285714285 -0.46628571428571425 4.132571428571429 -0.64 6.308571428571428h43.81714285714286Z" clip-rule="evenodd" stroke-width="1"></path></g></svg>