<?xml version="1.0" encoding="UTF-8"?>
<svg version="1.1" viewBox="0 0 64 64" xmlns="http://www.w3.org/2000/svg" xmlnsCc="http://creativecommons.org/ns#" xmlnsDc="http://purl.org/dc/elements/1.1/" xmlnsRdf="http://www.w3.org/1999/02/22-rdf-syntax-ns#">
<defs>
<linearGradient id="a" x1="406.5" x2="419.97" y1="527.01" y2="539.83" gradientTransform="matrix(1.2998 0 0 1.2998 -499.07 339.53)" gradientUnits="userSpaceOnUse">
<stop stop-color="#292c2f" offset="0"/>
<stop stop-opacity="0" offset="1"/>
</linearGradient>
<linearGradient id="b" x1="36.313" x2="17.848" y1="45.539" y2="11.687" gradientTransform="matrix(1.2998 0 0 1.2998 .80078 989.17)" gradientUnits="userSpaceOnUse">
<stop stop-color="#bfc9c9" offset="0"/>
<stop stop-color="#fbfbfb" offset="1"/>
</linearGradient>
<linearGradient id="c" x1="428.82" x2="388.86" y1="547.63" y2="499.68" gradientTransform="matrix(1.2998 0 0 1.2998 -499.07 339.53)" gradientUnits="userSpaceOnUse">
<stop stop-color="#2a2c2f" offset="0"/>
<stop stop-color="#536161" offset="1"/>
</linearGradient>
</defs>
<g transform="translate(0 -988.36)">
<rect x="6" y="994.37" width="51.992" height="51.992" rx=".99221" ry=".9922" fill="url(#c)"/>
<path d="m27.335 1007.4-1.8379 1.838 11.16 11.16-11.16 11.16 1.8379 1.8379 12.998-12.998-1.8379-1.8379z" fill="url(#b)"/>
<path d="m27.343 1033.4 12.46 12.46h18.197v-7.7988l-17.659-17.659z" fill="url(#a)" fill-rule="evenodd" opacity=".4"/>
<path transform="translate(0 988.36)" d="m6.9922 6.0078c-0.54969 0-0.99219 0.44251-0.99219 0.99219v1c0-0.54968 0.4425-0.99219 0.99219-0.99219h50.008c0.54969 0 0.99219 0.44251 0.99219 0.99219v-1c0-0.54968-0.4425-0.99219-0.99219-0.99219h-50.008z" color="#000000" color-rendering="auto" fill="#fff" image-rendering="auto" opacity=".3" shape-rendering="auto" solid-color="#000000" style="filter-blend-mode:normal;filter-gaussianBlur-deviation:0;isolation:auto;mix-blend-mode:normal"/>
<path d="m6.9922 1046.4c-0.54969 0-0.99219-0.4425-0.99219-0.9922v-1c0 0.5497 0.4425 0.9922 0.99219 0.9922h50.008c0.54969 0 0.99219-0.4425 0.99219-0.9922v1c0 0.5497-0.4425 0.9922-0.99219 0.9922h-50.008z" color="#000000" color-rendering="auto" image-rendering="auto" opacity=".3" shape-rendering="auto" solid-color="#000000" style="filter-blend-mode:normal;filter-gaussianBlur-deviation:0;isolation:auto;mix-blend-mode:normal"/>
</g>
</svg>
